<svg version="1.1" id="Layer_1" xmlns="http://www.w3.org/2000/svg" xmlns:xlink="http://www.w3.org/1999/xlink" x="0px" y="0px"
	 width="100%" viewBox="0 0 380 508" enable-background="new 0 0 380 508" xml:space="preserve">
<path fill="#000000" opacity="1.000000" stroke="none" 
	d="
M381.000000,16.000000 
	C381.000000,180.227768 381.000000,344.455536 381.000000,509.000000 
	C320.311676,509.000000 259.622833,509.000000 198.178253,508.698730 
	C203.634323,504.747742 209.813324,501.040802 216.064255,497.459381 
	C232.922424,487.800446 249.811218,478.194946 267.151611,468.303711 
	C266.811554,467.008209 266.568481,465.438873 265.989319,464.005310 
	C264.649384,460.688660 265.093781,458.743622 268.603210,456.583801 
	C278.618195,450.420105 288.169952,443.508820 297.990021,437.021912 
	C307.249878,430.905029 307.385376,430.942169 303.162720,420.596039 
	C301.508606,416.543182 301.532684,413.139984 303.860413,409.121246 
	C308.852112,400.503387 313.194000,391.507660 317.758667,382.644379 
	C322.615784,373.213470 327.447754,363.769379 332.244385,354.307556 
	C336.534149,345.845551 341.673340,338.260101 338.006561,327.302521 
	C327.588287,296.168915 318.349762,264.640015 308.701843,233.249786 
	C307.620544,229.731720 306.229065,226.124756 306.122925,222.525345 
	C305.789154,211.207306 305.964447,199.872940 306.046295,188.545639 
	C306.056213,187.173874 306.253845,185.335983 307.121887,184.513824 
	C312.721649,179.210098 319.021637,174.569763 324.156189,168.869003 
	C331.485535,160.731384 342.275421,155.828979 345.144104,143.412308 
	C349.728760,123.568314 355.684143,104.042526 360.987518,84.362663 
	C367.042023,61.895592 373.007629,39.404560 379.093750,16.946133 
	C379.216827,16.491919 380.342224,16.309317 381.000000,16.000000 
z"/>
<path fill="#000000" opacity="1.000000" stroke="none" 
	d="
M184.000000,509.000000 
	C123.039246,509.000000 62.078491,509.000000 1.000000,509.000000 
	C1.000000,345.311340 1.000000,181.622650 1.409464,17.472200 
	C3.713521,23.675621 5.761578,30.301588 7.476802,37.012623 
	C16.034338,70.495064 24.714211,103.948860 32.874557,137.528534 
	C35.251881,147.311188 38.792454,155.720413 46.714100,162.451508 
	C54.181709,168.796814 60.828617,176.127029 67.625053,183.226456 
	C68.922134,184.581360 69.864975,186.868866 69.897156,188.744537 
	C70.100090,200.574142 70.016914,212.409012 69.975784,224.241959 
	C69.971306,225.530182 69.754204,226.849136 69.428116,228.099686 
	C67.322136,236.176147 65.078537,244.217300 63.028240,252.307587 
	C56.117744,279.575836 49.225105,306.848938 42.486698,334.159912 
	C41.985806,336.190063 42.159679,338.816986 43.036507,340.690765 
	C52.843990,361.649414 62.721672,382.577850 72.874420,403.370880 
	C76.492134,410.780090 80.032097,417.796326 76.205215,426.338562 
	C75.469559,427.980652 76.416367,431.697418 77.851105,432.776886 
	C87.264145,439.858978 97.023781,446.480438 106.671165,453.250977 
	C111.403038,456.571869 116.566559,459.701599 112.044785,466.746613 
	C111.761398,467.188171 112.083580,468.018402 112.099808,468.278961 
	C119.820908,472.621918 127.178627,476.911682 134.674530,480.944580 
	C149.108612,488.710236 163.653961,496.269501 178.065750,504.075775 
	C180.282501,505.276550 182.033569,507.337067 184.000000,509.000000 
z"/>
<path fill="#FFFFFF" opacity="1.000000" stroke="none" 
	d="
M184.464661,509.000000 
	C182.033569,507.337067 180.282501,505.276550 178.065750,504.075775 
	C163.653961,496.269501 149.108612,488.710236 134.674530,480.944580 
	C127.178627,476.911682 119.820908,472.621918 112.099808,468.278961 
	C112.083580,468.018402 111.761398,467.188171 112.044785,466.746613 
	C116.566559,459.701599 111.403038,456.571869 106.671165,453.250977 
	C97.023781,446.480438 87.264145,439.858978 77.851105,432.776886 
	C76.416367,431.697418 75.469559,427.980652 76.205215,426.338562 
	C80.032097,417.796326 76.492134,410.780090 72.874420,403.370880 
	C62.721672,382.577850 52.843990,361.649414 43.036507,340.690765 
	C42.159679,338.816986 41.985806,336.190063 42.486698,334.159912 
	C49.225105,306.848938 56.117744,279.575836 63.028240,252.307587 
	C65.078537,244.217300 67.322136,236.176147 69.428116,228.099686 
	C69.754204,226.849136 69.971306,225.530182 69.975784,224.241959 
	C70.016914,212.409012 70.100090,200.574142 69.897156,188.744537 
	C69.864975,186.868866 68.922134,184.581360 67.625053,183.226456 
	C60.828617,176.127029 54.181709,168.796814 46.714100,162.451508 
	C38.792454,155.720413 35.251881,147.311188 32.874557,137.528534 
	C24.714211,103.948860 16.034338,70.495064 7.476802,37.012623 
	C5.761578,30.301588 3.713521,23.675621 1.409464,17.005215 
	C1.000000,11.765622 1.000000,6.531245 1.000000,1.000000 
	C4.002747,1.000000 7.014809,1.000000 10.223351,1.307402 
	C14.262399,3.899014 18.006016,6.373228 21.964542,8.434780 
	C39.783360,17.714596 57.632629,26.937540 75.552704,36.019619 
	C78.351555,37.438103 79.084198,39.217937 79.063454,42.185547 
	C78.936600,60.337185 79.000000,78.490150 79.000000,96.642677 
	C79.000000,98.045204 79.000000,99.447723 79.000000,100.655830 
	C151.762543,64.491470 224.063049,60.609131 297.000000,100.670242 
	C297.000000,98.202072 297.000000,96.587952 297.000000,94.973839 
	C297.000000,79.985519 297.570984,64.967087 296.782837,50.020321 
	C296.320343,41.249065 298.509338,36.692909 307.164215,32.958122 
	C327.627045,24.127918 347.399628,13.695133 367.400177,3.806992 
	C368.200439,3.411355 368.478577,1.959655 369.000000,1.000001 
	C372.932770,1.000000 376.865570,1.000000 381.000000,1.000000 
	C381.000000,5.683653 381.000000,10.369163 381.000000,15.527338 
	C380.342224,16.309317 379.216827,16.491919 379.093750,16.946133 
	C373.007629,39.404560 367.042023,61.895592 360.987518,84.362663 
	C355.684143,104.042526 349.728760,123.568314 345.144104,143.412308 
	C342.275421,155.828979 331.485535,160.731384 324.156189,168.869003 
	C319.021637,174.569763 312.721649,179.210098 307.121887,184.513824 
	C306.253845,185.335983 306.056213,187.173874 306.046295,188.545639 
	C305.964447,199.872940 305.789154,211.207306 306.122925,222.525345 
	C306.229065,226.124756 307.620544,229.731720 308.701843,233.249786 
	C318.349762,264.640015 327.588287,296.168915 338.006561,327.302521 
	C341.673340,338.260101 336.534149,345.845551 332.244385,354.307556 
	C327.447754,363.769379 322.615784,373.213470 317.758667,382.644379 
	C313.194000,391.507660 308.852112,400.503387 303.860413,409.121246 
	C301.532684,413.139984 301.508606,416.543182 303.162720,420.596039 
	C307.385376,430.942169 307.249878,430.905029 297.990021,437.021912 
	C288.169952,443.508820 278.618195,450.420105 268.603210,456.583801 
	C265.093781,458.743622 264.649384,460.688660 265.989319,464.005310 
	C266.568481,465.438873 266.811554,467.008209 267.151611,468.303711 
	C249.811218,478.194946 232.922424,487.800446 216.064255,497.459381 
	C209.813324,501.040802 203.634323,504.747742 197.711273,508.698730 
	C193.643097,509.000000 189.286194,509.000000 184.464661,509.000000 
M286.657684,105.968040 
	C274.665558,100.648422 262.980560,94.417252 250.601349,90.246452 
	C236.054047,85.345177 220.842117,83.097801 205.398438,81.682785 
	C189.958008,80.268059 174.772202,81.400314 159.698517,83.395844 
	C147.507660,85.009712 135.559891,88.759804 123.642174,92.060181 
	C109.060638,96.098259 95.267517,102.091209 82.326553,110.034584 
	C79.748474,111.617058 78.914520,113.288582 78.924622,116.277161 
	C79.042381,151.087601 78.745323,185.901840 79.191383,220.706955 
	C79.294075,228.719025 85.437195,234.723328 90.072105,240.948257 
	C90.234604,241.166489 91.006187,240.931229 90.259285,240.967819 
	C94.763229,234.030640 98.639519,227.575058 102.987289,221.454361 
	C116.144943,202.931213 136.960953,196.745316 158.316818,202.682648 
	C169.180679,205.702988 178.734299,211.177567 187.837204,217.523087 
	C190.373108,219.290833 191.768127,219.070892 194.270355,217.444962 
	C201.398941,212.812927 208.597549,208.149490 216.238434,204.475540 
	C229.864517,197.923676 243.946213,197.916794 257.266724,205.188934 
	C268.756012,211.461334 277.062103,221.305771 283.839508,232.423859 
	C285.699432,235.475037 287.652557,238.469406 289.937927,242.082733 
	C294.342499,232.378403 297.366058,223.889252 297.193970,214.020645 
	C296.662567,183.549622 296.626801,153.055908 297.242432,122.588043 
	C297.412567,114.167389 295.202332,108.890503 286.657684,105.968040 
M171.328796,489.030792 
	C177.503448,492.482300 183.630768,496.024872 189.904434,499.285828 
	C190.832321,499.768097 192.628128,499.238373 193.723129,498.634338 
	C200.611893,494.834320 207.411026,490.872070 214.249069,486.979767 
	C228.173447,479.053955 242.103714,471.138519 256.130280,463.162598 
	C255.737610,461.687561 255.251465,460.320007 255.017502,458.910614 
	C252.976929,446.618622 251.081512,434.301697 248.946808,422.026306 
	C246.399612,407.378815 243.544250,392.784607 241.036743,378.130646 
	C238.851227,365.358368 237.091095,352.513397 234.912659,339.739838 
	C232.060303,323.014709 229.119446,306.301117 225.847214,289.655151 
	C225.372070,287.238037 223.325317,284.314697 221.182999,283.182556 
	C212.245605,278.459442 203.043533,274.220184 193.810974,270.088440 
	C192.184784,269.360718 189.670120,269.373322 188.042053,270.104492 
	C179.838074,273.789001 171.857895,277.970734 163.664001,281.679321 
	C159.192856,283.703033 156.340515,285.705231 155.487350,291.557861 
	C152.998657,308.629822 149.248978,325.517731 146.001434,342.479279 
	C143.694687,354.527313 141.378632,366.573608 139.106827,378.628204 
	C136.713821,391.325836 134.380768,404.034790 131.999023,416.734558 
	C129.353470,430.841064 126.749115,444.955963 123.972984,459.036896 
	C123.326096,462.317963 124.071312,464.139801 127.207901,465.773499 
	C141.744110,473.344727 156.129700,481.205109 171.328796,489.030792 
M150.330872,211.000122 
	C142.309418,209.339447 134.693802,210.376099 127.275826,213.937195 
	C111.170204,221.668961 103.039543,235.703674 97.235878,251.575836 
	C96.821518,252.709061 97.417213,254.440125 98.003159,255.674988 
	C103.443909,267.141205 109.108292,278.502991 114.421829,290.026917 
	C115.977562,293.400970 117.713158,293.262421 120.494934,291.896729 
	C142.853897,280.919983 165.217178,269.950439 187.687393,259.205048 
	C189.529831,258.323975 192.533096,258.360748 194.388382,259.246185 
	C216.717987,269.903198 238.969421,280.726807 261.139008,291.713318 
	C264.575500,293.416321 266.251282,293.029907 267.918396,289.556000 
	C272.790649,279.403259 277.539795,269.153015 283.159424,259.415497 
	C285.525360,255.315857 284.709900,252.477905 282.667297,249.271774 
	C277.828888,241.677307 273.460083,233.677277 267.803375,226.736069 
	C259.806274,216.923019 249.938110,209.767044 236.257996,209.944519 
	C226.318893,210.073471 217.753647,214.022781 209.625717,219.012741 
	C203.088470,223.026169 196.983459,227.743668 190.844650,232.038223 
	C178.763901,222.327744 166.178040,214.427460 150.330872,211.000122 
M358.016144,18.477894 
	C342.146698,26.287273 326.348999,34.248913 310.350342,41.783958 
	C306.947418,43.386658 305.909515,45.127644 305.924866,48.719563 
	C306.056061,79.368080 306.000000,110.017395 306.000000,140.666473 
	C306.000000,150.603333 306.000000,160.540192 306.000000,170.728653 
	C307.044067,170.355331 307.938599,170.284988 308.468109,169.808792 
	C316.575378,162.517700 324.643799,155.183212 332.687256,147.821671 
	C333.256287,147.300888 333.750916,146.543381 333.956726,145.805710 
	C335.680267,139.628784 337.314178,133.426941 339.001221,127.239754 
	C344.614685,106.652145 350.262390,86.073830 355.852051,65.479767 
	C360.486633,48.404465 365.057709,31.311922 369.868195,13.442176 
	C365.695160,15.150511 362.175751,16.591280 358.016144,18.477894 
M39.494621,125.996788 
	C39.659332,126.450073 39.856495,126.894432 39.983856,127.357979 
	C41.768547,133.853561 41.952976,141.519608 45.675053,146.589584 
	C52.072227,155.303421 60.674343,162.398544 69.274315,171.108322 
	C69.639305,168.313416 69.976227,166.932541 69.977211,165.551437 
	C70.005447,125.895691 70.027824,86.239822 69.892914,46.584503 
	C69.887787,45.079956 68.684593,42.906101 67.400688,42.190304 
	C59.958099,38.040977 52.315807,34.250824 44.756084,30.310366 
	C33.665462,24.529448 22.587482,18.724270 11.385109,12.867205 
	C11.223711,13.581354 10.929811,14.102407 11.036376,14.521676 
	C17.526207,40.055225 24.073019,65.574303 30.557482,91.109207 
	C33.445511,102.481857 36.214138,113.884834 39.494621,125.996788 
M100.035233,282.384155 
	C93.386963,269.713531 86.795448,257.012299 80.007019,244.417221 
	C79.288376,243.083878 77.413872,242.373535 75.829224,241.190186 
	C74.986145,243.542587 74.386414,244.865494 74.033958,246.251282 
	C67.062325,273.661621 60.080158,301.069427 53.224354,328.508820 
	C52.442120,331.639587 51.415451,335.235535 52.236282,338.122772 
	C53.621849,342.996399 56.353752,347.495636 58.592991,352.116669 
	C65.042603,365.426453 71.543213,378.711517 77.989014,392.023132 
	C79.303932,394.738678 80.467079,397.527710 82.140900,401.267548 
	C84.209084,393.530579 85.863953,387.170258 87.610771,380.835297 
	C94.051888,357.476196 100.424118,334.097229 107.043907,310.788696 
	C109.036476,303.772797 109.131477,297.348511 104.704895,291.146545 
	C102.947815,288.684753 101.881058,285.730194 100.035233,282.384155 
M315.041565,286.372009 
	C311.032593,273.195892 307.051483,260.011078 302.962372,246.859863 
	C302.631256,245.795013 301.560120,244.960251 300.832855,244.018570 
	C299.973724,244.796570 298.765808,245.409378 298.307312,246.377182 
	C290.342194,263.190643 282.371918,280.003540 274.685028,296.944702 
	C273.586304,299.366211 273.156372,302.645538 273.769348,305.203796 
	C280.019531,331.287689 286.532959,357.308685 293.016113,383.336456 
	C294.338135,388.643860 295.841278,393.906097 297.260956,399.189178 
	C297.781250,399.226227 298.301544,399.263306 298.821838,399.300354 
	C308.904114,378.738190 318.996033,358.180695 329.025604,337.592865 
	C329.351227,336.924469 329.207367,335.902283 329.001282,335.118927 
	C326.356293,325.063873 323.728943,315.003174 320.950806,304.984497 
	C319.281464,298.964386 317.356781,293.015106 315.041565,286.372009 
M139.999847,325.439331 
	C142.031433,314.387024 144.063034,303.334686 146.111816,292.188843 
	C145.060471,292.091827 144.494308,291.858185 144.111572,292.030914 
	C135.783081,295.790192 127.444496,299.530884 119.203415,303.474854 
	C118.224861,303.943207 117.507233,305.486847 117.172310,306.674133 
	C115.995537,310.845795 115.128036,315.103973 113.983200,319.285522 
	C108.390244,339.714081 102.709526,360.118622 97.131752,380.551300 
	C93.369919,394.331696 89.628929,408.120026 86.155228,421.974152 
	C85.715714,423.727051 86.283325,426.807861 87.529694,427.736847 
	C96.943161,434.753418 106.642998,441.385803 116.568375,448.359406 
	C117.127792,446.639984 117.728264,445.330505 117.973495,443.957520 
	C120.360977,430.590729 122.600784,417.197083 125.057007,403.843140 
	C127.948570,388.122345 130.989166,372.428772 134.011032,356.732208 
	C135.963882,346.588409 137.999130,336.460480 139.999847,325.439331 
M285.025757,433.470459 
	C287.743164,431.751404 290.669006,430.275452 293.084869,428.204590 
	C294.193634,427.254181 295.091095,424.929810 294.739197,423.578888 
	C291.591064,411.493408 287.925293,399.541779 284.828949,387.444000 
	C278.734802,363.633514 272.912384,339.753510 266.968384,315.904541 
	C263.999329,303.991913 263.991486,303.991547 252.767181,298.327026 
	C249.892929,296.876465 247.069031,295.301636 244.107498,294.056213 
	C241.685028,293.037445 239.092194,292.423828 235.639587,291.335876 
	C244.680634,344.247803 253.540375,396.098785 262.546234,448.804779 
	C270.195007,443.646759 277.347534,438.823395 285.025757,433.470459 
z"/>
<path fill="#000000" opacity="1.000000" stroke="none" 
	d="
M368.531342,1.000001 
	C368.478577,1.959655 368.200439,3.411355 367.400177,3.806992 
	C347.399628,13.695133 327.627045,24.127918 307.164215,32.958122 
	C298.509338,36.692909 296.320343,41.249065 296.782837,50.020321 
	C297.570984,64.967087 297.000000,79.985519 297.000000,94.973839 
	C297.000000,96.587952 297.000000,98.202072 297.000000,100.670242 
	C224.063049,60.609131 151.762543,64.491470 79.000000,100.655830 
	C79.000000,99.447723 79.000000,98.045204 79.000000,96.642677 
	C79.000000,78.490150 78.936600,60.337185 79.063454,42.185547 
	C79.084198,39.217937 78.351555,37.438103 75.552704,36.019619 
	C57.632629,26.937540 39.783360,17.714596 21.964542,8.434780 
	C18.006016,6.373228 14.262399,3.899014 10.709915,1.307402 
	C130.020889,1.000000 249.041794,1.000000 368.531342,1.000001 
z"/>
<path fill="#000000" opacity="1.000000" stroke="none" 
	d="
M287.035522,106.002014 
	C295.202332,108.890503 297.412567,114.167389 297.242432,122.588043 
	C296.626801,153.055908 296.662567,183.549622 297.193970,214.020645 
	C297.366058,223.889252 294.342499,232.378403 289.937927,242.082733 
	C287.652557,238.469406 285.699432,235.475037 283.839508,232.423859 
	C277.062103,221.305771 268.756012,211.461334 257.266724,205.188934 
	C243.946213,197.916794 229.864517,197.923676 216.238434,204.475540 
	C208.597549,208.149490 201.398941,212.812927 194.270355,217.444962 
	C191.768127,219.070892 190.373108,219.290833 187.837204,217.523087 
	C178.734299,211.177567 169.180679,205.702988 158.316818,202.682648 
	C136.960953,196.745316 116.144943,202.931213 102.987289,221.454361 
	C98.639519,227.575058 94.763229,234.030640 90.259285,240.967819 
	C91.006187,240.931229 90.234604,241.166489 90.072105,240.948257 
	C85.437195,234.723328 79.294075,228.719025 79.191383,220.706955 
	C78.745323,185.901840 79.042381,151.087601 78.924622,116.277161 
	C78.914520,113.288582 79.748474,111.617058 82.326553,110.034584 
	C95.267517,102.091209 109.060638,96.098259 123.642174,92.060181 
	C135.559891,88.759804 147.507660,85.009712 159.698517,83.395844 
	C174.772202,81.400314 189.958008,80.268059 205.398438,81.682785 
	C220.842117,83.097801 236.054047,85.345177 250.601349,90.246452 
	C262.980560,94.417252 274.665558,100.648422 287.035522,106.002014 
z"/>
<path fill="#000000" opacity="1.000000" stroke="none" 
	d="
M170.949005,488.996399 
	C156.129700,481.205109 141.744110,473.344727 127.207901,465.773499 
	C124.071312,464.139801 123.326096,462.317963 123.972984,459.036896 
	C126.749115,444.955963 129.353470,430.841064 131.999023,416.734558 
	C134.380768,404.034790 136.713821,391.325836 139.106827,378.628204 
	C141.378632,366.573608 143.694687,354.527313 146.001434,342.479279 
	C149.248978,325.517731 152.998657,308.629822 155.487350,291.557861 
	C156.340515,285.705231 159.192856,283.703033 163.664001,281.679321 
	C171.857895,277.970734 179.838074,273.789001 188.042053,270.104492 
	C189.670120,269.373322 192.184784,269.360718 193.810974,270.088440 
	C203.043533,274.220184 212.245605,278.459442 221.182999,283.182556 
	C223.325317,284.314697 225.372070,287.238037 225.847214,289.655151 
	C229.119446,306.301117 232.060303,323.014709 234.912659,339.739838 
	C237.091095,352.513397 238.851227,365.358368 241.036743,378.130646 
	C243.544250,392.784607 246.399612,407.378815 248.946808,422.026306 
	C251.081512,434.301697 252.976929,446.618622 255.017502,458.910614 
	C255.251465,460.320007 255.737610,461.687561 256.130280,463.162598 
	C242.103714,471.138519 228.173447,479.053955 214.249069,486.979767 
	C207.411026,490.872070 200.611893,494.834320 193.723129,498.634338 
	C192.628128,499.238373 190.832321,499.768097 189.904434,499.285828 
	C183.630768,496.024872 177.503448,492.482300 170.949005,488.996399 
M189.703003,315.000000 
	C198.893631,314.999146 202.696320,312.672455 204.916916,303.453644 
	C206.331085,297.582764 205.926422,291.273804 206.348145,285.000000 
	C200.539062,285.000000 195.737289,285.000000 190.935516,285.000000 
	C186.024292,285.000000 181.113068,285.000000 176.000427,285.000000 
	C176.000427,290.531097 175.674149,295.514099 176.074097,300.438141 
	C176.734482,308.568390 181.300751,314.067383 189.703003,315.000000 
z"/>
<path fill="#000000" opacity="1.000000" stroke="none" 
	d="
M150.773621,211.000977 
	C166.178040,214.427460 178.763901,222.327744 190.844650,232.038223 
	C196.983459,227.743668 203.088470,223.026169 209.625717,219.012741 
	C217.753647,214.022781 226.318893,210.073471 236.257996,209.944519 
	C249.938110,209.767044 259.806274,216.923019 267.803375,226.736069 
	C273.460083,233.677277 277.828888,241.677307 282.667297,249.271774 
	C284.709900,252.477905 285.525360,255.315857 283.159424,259.415497 
	C277.539795,269.153015 272.790649,279.403259 267.918396,289.556000 
	C266.251282,293.029907 264.575500,293.416321 261.139008,291.713318 
	C238.969421,280.726807 216.717987,269.903198 194.388382,259.246185 
	C192.533096,258.360748 189.529831,258.323975 187.687393,259.205048 
	C165.217178,269.950439 142.853897,280.919983 120.494934,291.896729 
	C117.713158,293.262421 115.977562,293.400970 114.421829,290.026917 
	C109.108292,278.502991 103.443909,267.141205 98.003159,255.674988 
	C97.417213,254.440125 96.821518,252.709061 97.235878,251.575836 
	C103.039543,235.703674 111.170204,221.668961 127.275826,213.937195 
	C134.693802,210.376099 142.309418,209.339447 150.773621,211.000977 
M165.066437,251.398193 
	C169.188980,246.347244 170.328049,240.261520 171.549637,234.063721 
	C172.877441,227.327057 169.130844,222.036362 162.194733,222.009949 
	C152.047867,221.971329 141.900635,221.967468 131.753815,222.011200 
	C124.742149,222.041428 120.036789,226.884567 120.006104,234.033554 
	C119.977539,240.687195 120.366943,247.368088 119.879555,253.985962 
	C119.514267,258.945831 124.370827,263.611389 128.596542,263.909363 
	C142.166504,264.866241 155.212280,263.812469 165.066437,251.398193 
M239.457825,246.999878 
	C240.846939,246.664398 242.285187,246.462112 243.616745,245.970642 
	C249.777283,243.697006 252.974792,235.610657 250.150314,229.604828 
	C246.850372,222.587967 240.386414,220.136871 233.994736,223.478683 
	C229.644455,225.753220 226.404785,231.475143 227.016006,235.804657 
	C227.855301,241.749725 231.891434,245.640427 239.457825,246.999878 
z"/>
<path fill="#000000" opacity="1.000000" stroke="none" 
	d="
M358.336243,18.254971 
	C362.175751,16.591280 365.695160,15.150511 369.868195,13.442176 
	C365.057709,31.311922 360.486633,48.404465 355.852051,65.479767 
	C350.262390,86.073830 344.614685,106.652145 339.001221,127.239754 
	C337.314178,133.426941 335.680267,139.628784 333.956726,145.805710 
	C333.750916,146.543381 333.256287,147.300888 332.687256,147.821671 
	C324.643799,155.183212 316.575378,162.517700 308.468109,169.808792 
	C307.938599,170.284988 307.044067,170.355331 306.000000,170.728653 
	C306.000000,160.540192 306.000000,150.603333 306.000000,140.666473 
	C306.000000,110.017395 306.056061,79.368080 305.924866,48.719563 
	C305.909515,45.127644 306.947418,43.386658 310.350342,41.783958 
	C326.348999,34.248913 342.146698,26.287273 358.336243,18.254971 
z"/>
<path fill="#000000" opacity="1.000000" stroke="none" 
	d="
M39.265789,125.635422 
	C36.214138,113.884834 33.445511,102.481857 30.557482,91.109207 
	C24.073019,65.574303 17.526207,40.055225 11.036376,14.521676 
	C10.929811,14.102407 11.223711,13.581354 11.385109,12.867205 
	C22.587482,18.724270 33.665462,24.529448 44.756084,30.310366 
	C52.315807,34.250824 59.958099,38.040977 67.400688,42.190304 
	C68.684593,42.906101 69.887787,45.079956 69.892914,46.584503 
	C70.027824,86.239822 70.005447,125.895691 69.977211,165.551437 
	C69.976227,166.932541 69.639305,168.313416 69.274315,171.108322 
	C60.674343,162.398544 52.072227,155.303421 45.675053,146.589584 
	C41.952976,141.519608 41.768547,133.853561 39.983856,127.357979 
	C39.856495,126.894432 39.659332,126.450073 39.265789,125.635422 
z"/>
<path fill="#000000" opacity="1.000000" stroke="none" 
	d="
M100.267616,282.692078 
	C101.881058,285.730194 102.947815,288.684753 104.704895,291.146545 
	C109.131477,297.348511 109.036476,303.772797 107.043907,310.788696 
	C100.424118,334.097229 94.051888,357.476196 87.610771,380.835297 
	C85.863953,387.170258 84.209084,393.530579 82.140900,401.267548 
	C80.467079,397.527710 79.303932,394.738678 77.989014,392.023132 
	C71.543213,378.711517 65.042603,365.426453 58.592991,352.116669 
	C56.353752,347.495636 53.621849,342.996399 52.236282,338.122772 
	C51.415451,335.235535 52.442120,331.639587 53.224354,328.508820 
	C60.080158,301.069427 67.062325,273.661621 74.033958,246.251282 
	C74.386414,244.865494 74.986145,243.542587 75.829224,241.190186 
	C77.413872,242.373535 79.288376,243.083878 80.007019,244.417221 
	C86.795448,257.012299 93.386963,269.713531 100.267616,282.692078 
z"/>
<path fill="#000000" opacity="1.000000" stroke="none" 
	d="
M315.294189,286.703003 
	C317.356781,293.015106 319.281464,298.964386 320.950806,304.984497 
	C323.728943,315.003174 326.356293,325.063873 329.001282,335.118927 
	C329.207367,335.902283 329.351227,336.924469 329.025604,337.592865 
	C318.996033,358.180695 308.904114,378.738190 298.821838,399.300354 
	C298.301544,399.263306 297.781250,399.226227 297.260956,399.189178 
	C295.841278,393.906097 294.338135,388.643860 293.016113,383.336456 
	C286.532959,357.308685 280.019531,331.287689 273.769348,305.203796 
	C273.156372,302.645538 273.586304,299.366211 274.685028,296.944702 
	C282.371918,280.003540 290.342194,263.190643 298.307312,246.377182 
	C298.765808,245.409378 299.973724,244.796570 300.832855,244.018570 
	C301.560120,244.960251 302.631256,245.795013 302.962372,246.859863 
	C307.051483,260.011078 311.032593,273.195892 315.294189,286.703003 
z"/>
<path fill="#000000" opacity="1.000000" stroke="none" 
	d="
M139.998642,325.882385 
	C137.999130,336.460480 135.963882,346.588409 134.011032,356.732208 
	C130.989166,372.428772 127.948570,388.122345 125.057007,403.843140 
	C122.600784,417.197083 120.360977,430.590729 117.973495,443.957520 
	C117.728264,445.330505 117.127792,446.639984 116.568375,448.359406 
	C106.642998,441.385803 96.943161,434.753418 87.529694,427.736847 
	C86.283325,426.807861 85.715714,423.727051 86.155228,421.974152 
	C89.628929,408.120026 93.369919,394.331696 97.131752,380.551300 
	C102.709526,360.118622 108.390244,339.714081 113.983200,319.285522 
	C115.128036,315.103973 115.995537,310.845795 117.172310,306.674133 
	C117.507233,305.486847 118.224861,303.943207 119.203415,303.474854 
	C127.444496,299.530884 135.783081,295.790192 144.111572,292.030914 
	C144.494308,291.858185 145.060471,292.091827 146.111816,292.188843 
	C144.063034,303.334686 142.031433,314.387024 139.998642,325.882385 
z"/>
<path fill="#000000" opacity="1.000000" stroke="none" 
	d="
M284.762909,433.735229 
	C277.347534,438.823395 270.195007,443.646759 262.546234,448.804779 
	C253.540375,396.098785 244.680634,344.247803 235.639587,291.335876 
	C239.092194,292.423828 241.685028,293.037445 244.107498,294.056213 
	C247.069031,295.301636 249.892929,296.876465 252.767181,298.327026 
	C263.991486,303.991547 263.999329,303.991913 266.968384,315.904541 
	C272.912384,339.753510 278.734802,363.633514 284.828949,387.444000 
	C287.925293,399.541779 291.591064,411.493408 294.739197,423.578888 
	C295.091095,424.929810 294.193634,427.254181 293.084869,428.204590 
	C290.669006,430.275452 287.743164,431.751404 284.762909,433.735229 
z"/>
<path fill="#FFFFFF" opacity="1.000000" stroke="none" 
	d="
M189.268494,315.000000 
	C181.300751,314.067383 176.734482,308.568390 176.074097,300.438141 
	C175.674149,295.514099 176.000427,290.531097 176.000427,285.000000 
	C181.113068,285.000000 186.024292,285.000000 190.935516,285.000000 
	C195.737289,285.000000 200.539062,285.000000 206.348145,285.000000 
	C205.926422,291.273804 206.331085,297.582764 204.916916,303.453644 
	C202.696320,312.672455 198.893631,314.999146 189.268494,315.000000 
z"/>
<path fill="#FFFFFF" opacity="1.000000" stroke="none" 
	d="
M164.824036,251.672333 
	C155.212280,263.812469 142.166504,264.866241 128.596542,263.909363 
	C124.370827,263.611389 119.514267,258.945831 119.879555,253.985962 
	C120.366943,247.368088 119.977539,240.687195 120.006104,234.033554 
	C120.036789,226.884567 124.742149,222.041428 131.753815,222.011200 
	C141.900635,221.967468 152.047867,221.971329 162.194733,222.009949 
	C169.130844,222.036362 172.877441,227.327057 171.549637,234.063721 
	C170.328049,240.261520 169.188980,246.347244 164.824036,251.672333 
z"/>
<path fill="#FFFFFF" opacity="1.000000" stroke="none" 
	d="
M239.043793,246.999893 
	C231.891434,245.640427 227.855301,241.749725 227.016006,235.804657 
	C226.404785,231.475143 229.644455,225.753220 233.994736,223.478683 
	C240.386414,220.136871 246.850372,222.587967 250.150314,229.604828 
	C252.974792,235.610657 249.777283,243.697006 243.616745,245.970642 
	C242.285187,246.462112 240.846939,246.664398 239.043793,246.999893 
z"/>
</svg>